/* XPM */
static const char * XgospelIcon_xpm[] = {
"46 46 33 1",
" 	c None",
".	c #FFC365",
"+	c #EBAA41",
"@	c #FFB241",
"#	c #FFBA59",
"$	c #000000",
"%	c #4A4A4A",
"&	c #404040",
"*	c #262626",
"=	c #787878",
"-	c #868686",
";	c #545454",
">	c #A9A9A9",
",	c #C2C2C2",
"'	c #070707",
")	c #FFFFFF",
"!	c #0E0E0E",
"~	c #F1F1F1",
"{	c #E3E3E3",
"]	c #ECECEC",
"^	c #CDCDCD",
"/	c #D2D2D2",
"(	c #B7B7B7",
"_	c #B3B3B3",
":	c #CACACA",
"<	c #AEAEAE",
"[	c #D6D6D6",
"}	c #BEBEBE",
"|	c #A8A8A8",
"1	c #DBDBDB",
"2	c #C6C6C6",
"3	c #9D9D9D",
"4	c #A1A1A1",
".+@#$$+@@#..+@@@#$@@@###+@##@$@#.+@@##..+$@###",
".+#%&*$$##..+@@@#$@@@##.+@@%&*$$+@@@##..+$@@##",
".+=-=;*$$#..+@@##$@@####+@=-=;*$$@@@##..+$@@##",
".=>,>=&'$$..+@@##$@@@##.+=>,>=&'$$##@#..+$@@##",
"%-,),-%!$$$++@@##$@@@##.%-,),-%!$$$@@#.$$$$$##",
"&=>,>=&'$$$+@@##.$@@@##.&=>,>=&'$$$###.$$$$$##",
"*;=-=;*$$$$$$$$$$$$$$$$$*;=-=;*$$$$$$$$$$$$$$$",
"$*&%&*$$$$$+@###+$@@@##.$*&%&*$$$$$###.$$$$$@#",
"$$'!'$$$$$$+@@###$@@###.$$'!'$$$$$$###.$$$$$##",
".$$$$$$$$$.+@@@#+$@#@##.+$$$$$$$$$@@#...+$@@##",
".+$$$$$$$#.+@@##+$@#@##.+@$$$$$$$@@@#...+$@###",
".+@$$$$$@#.+@#@.+$##@##.+@@$$$$$+@@@#...+$@@##",
".+@#$$@@@#.+@@@..$#####.+@@##$#.+@@##...+$@@##",
".+@))))~@#.+@@@))))~@##.+@#%&*$$+@@##..%&*$$##",
".+)))))){#.+@@)))))){##.+@=-=;*$$@@##.=-=;*$$#",
".)))))))]^.+@)))))))]^#.+=>,>=&'$$@##=>,>=&'$$",
"))))))))~/(+))))))))~/(.%-,),-%!$$$#%-,),-%!$$",
"))))))))]^_+))))))))]^_.&=>,>=&'$$$@&=>,>=&'$$",
")))))))){:<$)))))))){:<$*;=-=;*$$$$$*;=-=;*$$$",
")))))))~[}|@)))))))~[}|.$*&%&*$$$$$#$*&%&*$$$$",
"~)))))~12<3@~)))))~12<3.$$'!'$$$$$$#$$'!'$$$$$",
".{]~]{[2_4+@@{]~]{[2_4..+$$$$$$$$$@@#$$$$$$$$$",
".+^/^:}<4#+@@#^/^:}<4#..+@$$$$$$$@#@#.$$$$$$$#",
".+@(_<|3##+@@@.(_<|3##..+@@$$$$$+@@##..$$$$$##",
".+@#$$@###+@@..+@$@@##.+@@@@#$..+@@##..+@$#@#.",
"+@@#$$#@##+@@@.+@$####.+@@@))))~+@@#...))))~#.",
"+@@#$$###.+@.@.+@$####+@@@)))))){@@#..)))))){.",
"+@@#$$###.+@@@..@$####+@@)))))))]^##.)))))))]^",
"+@@#$$#@#.+@@@#+@$@##.+.))))))))~/(#))))))))~/",
"+@@#$$###.+@@@#+@$##..+@))))))))]^_#))))))))]^",
"+@@#$$$$$$$$$$$$$$$$$$$$)))))))){:<$)))))))){:",
"+@@#$$#@#.+@@@#+@$####+@)))))))~[}|#)))))))~[}",
"+@@#$$###.+@@##+@$@###+@~)))))~12<3#~)))))~12<",
"+@@#$$#@#.+@@##+@$@###+@@{]~]{[2_4##.{]~]{[2_4",
".+@#$$#@#.+@@#.+@$@@#.+@@@^/^:}<4@@#..^/^:}<4#",
".+@#$$#@#.+@##.+@$@...+@@##(_<|3@###...(_<|3#.",
".+@#$$@@#.+###.+@$@@#.+@@@#@#$+@@#@#...+@$###.",
".+@#$$@@#.+###.+@$@@#.+@@@###$+@@###...+@$@##.",
".+@#$$@@#.+@@#.+@$@@#.+@@@###$+@@###...+@$#@#.",
".+@#$$@@#.+@##.+@$@@#.+@@@###$+@@@###..+@$@@#.",
"+@@#$$@@#.+@@#.+@$#@#.+@@@@#.$+@@#@#...+@$###.",
"+@@#$$@@#.+@@#.+@$###.+@@@@#.$+@@@##...+@$#@#.",
"+###$$$$$$$$$$$$$$$$$$$$$$$$$$$$$$$$$$$$$$$$$$",
"+###$$$$$$$$$$$$$$$$$$$$$$$$$$$$$$$$$$$$$$$$$$",
"@#@#+@@@#.+@@#.+@@###.+@##@#..+@@###...+@@###.",
"##@#+@@##.+@@#.+@@@##.+@@#@#..+@@@#....+@@###."};
